<svg viewBox="0 0 720 380" role="img" aria-label="P2 — Salida por agotamiento (RECHAZADA)" xmlns="http://www.w3.org/2000/svg" style="max-width:100%;height:auto;border:1px solid #d9d5c9;border-radius:8px">
<style>
.cbg{fill:#FCFBF8} .cgrid{stroke:#E4E1D6;stroke-width:1} .up{fill:#2E7A50;stroke:#2E7A50}
.dn{fill:#A6392E;stroke:#A6392E} .wu{stroke:#2E7A50;stroke-width:1.4} .wd{stroke:#A6392E;stroke-width:1.4}
.e1{stroke:#C77D2E;stroke-width:2;fill:none} .e2{stroke:#7C8288;stroke-width:2;fill:none;stroke-dasharray:5 3}
.bb{stroke:#6E7AD6;stroke-width:1.3;fill:none;stroke-dasharray:3 3} .lvl{stroke:#7C8288;stroke-width:1;stroke-dasharray:4 3}
.txt{fill:#1B1F23;font-family:ui-monospace,Menlo,monospace} .txf{fill:#7C8288;font-family:ui-monospace,Menlo,monospace}
.mk-in{fill:#2E7A50} .mk-out{fill:#A6392E} .mkl{fill:#1B1F23;font-family:ui-monospace,Menlo,monospace;font-weight:bold}
.title{fill:#1B1F23;font-family:ui-monospace,Menlo,monospace;font-weight:bold} .badge-g{fill:#DEEBE2;stroke:#2E7A50}
.badge-r{fill:#F2DDD9;stroke:#A6392E} .bt-g{fill:#2E7A50} .bt-r{fill:#A6392E}
@media (prefers-color-scheme:dark){
 .cbg{fill:#1A1D20} .cgrid{stroke:#2A2D31} .up{fill:#5FB981;stroke:#5FB981} .dn{fill:#E2837A;stroke:#E2837A}
 .wu{stroke:#5FB981} .wd{stroke:#E2837A} .e1{stroke:#DFA054} .e2{stroke:#9EA2AD} .bb{stroke:#8B95E0}
 .lvl{stroke:#8B8880} .txt{fill:#E9E6DD} .txf{fill:#8B8880} .mk-in{fill:#5FB981} .mk-out{fill:#E2837A}
 .mkl{fill:#E9E6DD} .badge-g{fill:#1C2E23;stroke:#5FB981} .badge-r{fill:#35201E;stroke:#E2837A}
 .bt-g{fill:#5FB981} .bt-r{fill:#E2837A}}
</style>
<rect class="cbg" x="0" y="0" width="720" height="380"/>
<text class="title" x="360.0" y="24" text-anchor="middle" font-size="15">P2 — Salida por agotamiento (RECHAZADA)</text>
<text class="txf" x="360.0" y="42" text-anchor="middle" font-size="11">SOLUSDT · salir por 'sobre-extensión' abandona la tendencia que después sigue subiendo</text>
<line class="cgrid" x1="46" y1="334.0" x2="706" y2="334.0"/>
<text class="txf" x="6" y="337.0" font-size="9.5">9.423</text>
<line class="cgrid" x1="46" y1="194.0" x2="706" y2="194.0"/>
<text class="txf" x="6" y="197.0" font-size="9.5">24.11</text>
<line class="cgrid" x1="46" y1="54.0" x2="706" y2="54.0"/>
<text class="txf" x="6" y="57.0" font-size="9.5">38.79</text>
<line class="wu" x1="50.0" y1="116.0" x2="50.0" y2="128.1"/>
<rect class="up" x="47.5" y="118.8" width="5.0" height="8.9"/>
<line class="wu" x1="58.1" y1="113.6" x2="58.1" y2="119.1"/>
<rect class="up" x="55.6" y="118.2" width="5.0" height="1.2"/>
<line class="wu" x1="66.1" y1="109.3" x2="66.1" y2="120.3"/>
<rect class="up" x="63.6" y="110.3" width="5.0" height="7.9"/>
<line class="wu" x1="74.2" y1="106.3" x2="74.2" y2="113.8"/>
<rect class="up" x="71.7" y="106.6" width="5.0" height="3.8"/>
<line class="wd" x1="82.2" y1="101.1" x2="82.2" y2="110.6"/>
<rect class="dn" x="79.7" y="106.6" width="5.0" height="2.9"/>
<line class="wu" x1="90.3" y1="105.5" x2="90.3" y2="112.0"/>
<rect class="up" x="87.8" y="107.9" width="5.0" height="1.6"/>
<line class="wd" x1="98.3" y1="102.1" x2="98.3" y2="111.7"/>
<rect class="dn" x="95.8" y="107.9" width="5.0" height="2.2"/>
<line class="wd" x1="106.4" y1="108.0" x2="106.4" y2="113.4"/>
<rect class="dn" x="103.9" y="110.1" width="5.0" height="1.2"/>
<line class="wu" x1="114.4" y1="106.7" x2="114.4" y2="112.1"/>
<rect class="up" x="111.9" y="109.2" width="5.0" height="1.4"/>
<line class="wu" x1="122.5" y1="104.1" x2="122.5" y2="111.9"/>
<rect class="up" x="120.0" y="105.5" width="5.0" height="3.6"/>
<line class="wd" x1="130.5" y1="104.1" x2="130.5" y2="115.4"/>
<rect class="dn" x="128.0" y="105.4" width="5.0" height="7.1"/>
<line class="wd" x1="138.6" y1="112.0" x2="138.6" y2="117.8"/>
<rect class="dn" x="136.1" y="112.4" width="5.0" height="4.4"/>
<line class="wu" x1="146.6" y1="114.2" x2="146.6" y2="118.9"/>
<rect class="up" x="144.1" y="115.6" width="5.0" height="1.2"/>
<line class="wu" x1="154.7" y1="107.9" x2="154.7" y2="119.7"/>
<rect class="up" x="152.2" y="110.1" width="5.0" height="5.6"/>
<line class="wd" x1="162.7" y1="105.6" x2="162.7" y2="114.9"/>
<rect class="dn" x="160.2" y="110.0" width="5.0" height="1.2"/>
<line class="wu" x1="170.8" y1="104.6" x2="170.8" y2="111.2"/>
<rect class="up" x="168.3" y="105.3" width="5.0" height="5.9"/>
<line class="wu" x1="178.8" y1="96.0" x2="178.8" y2="108.1"/>
<rect class="up" x="176.3" y="99.5" width="5.0" height="5.8"/>
<line class="wd" x1="186.9" y1="98.2" x2="186.9" y2="113.0"/>
<rect class="dn" x="184.4" y="99.5" width="5.0" height="10.0"/>
<line class="wd" x1="194.9" y1="107.2" x2="194.9" y2="113.9"/>
<rect class="dn" x="192.4" y="109.5" width="5.0" height="4.3"/>
<line class="wu" x1="203.0" y1="111.6" x2="203.0" y2="117.1"/>
<rect class="up" x="200.5" y="113.6" width="5.0" height="1.2"/>
<line class="wu" x1="211.0" y1="109.3" x2="211.0" y2="114.2"/>
<rect class="up" x="208.5" y="113.1" width="5.0" height="1.2"/>
<line class="wu" x1="219.0" y1="107.2" x2="219.0" y2="113.8"/>
<rect class="up" x="216.6" y="109.2" width="5.0" height="3.9"/>
<line class="wd" x1="227.1" y1="105.6" x2="227.1" y2="111.1"/>
<rect class="dn" x="224.6" y="109.3" width="5.0" height="1.2"/>
<line class="wd" x1="235.1" y1="108.0" x2="235.1" y2="116.5"/>
<rect class="dn" x="232.7" y="110.3" width="5.0" height="4.1"/>
<line class="wd" x1="243.2" y1="113.3" x2="243.2" y2="117.5"/>
<rect class="dn" x="240.7" y="114.5" width="5.0" height="2.4"/>
<line class="wd" x1="251.2" y1="114.8" x2="251.2" y2="117.5"/>
<rect class="dn" x="248.7" y="116.8" width="5.0" height="1.2"/>
<line class="wu" x1="259.3" y1="115.3" x2="259.3" y2="119.9"/>
<rect class="up" x="256.8" y="116.5" width="5.0" height="1.2"/>
<line class="wd" x1="267.3" y1="114.8" x2="267.3" y2="123.6"/>
<rect class="dn" x="264.8" y="116.5" width="5.0" height="5.3"/>
<line class="wd" x1="275.4" y1="119.3" x2="275.4" y2="127.6"/>
<rect class="dn" x="272.9" y="121.7" width="5.0" height="3.8"/>
<line class="wu" x1="283.4" y1="123.0" x2="283.4" y2="127.3"/>
<rect class="up" x="280.9" y="125.3" width="5.0" height="1.2"/>
<line class="wd" x1="291.5" y1="110.0" x2="291.5" y2="130.5"/>
<rect class="dn" x="289.0" y="125.2" width="5.0" height="4.2"/>
<line class="wd" x1="299.5" y1="128.3" x2="299.5" y2="135.9"/>
<rect class="dn" x="297.0" y="129.5" width="5.0" height="1.2"/>
<line class="wu" x1="307.6" y1="120.7" x2="307.6" y2="132.3"/>
<rect class="up" x="305.1" y="122.3" width="5.0" height="8.1"/>
<line class="wu" x1="315.6" y1="116.5" x2="315.6" y2="122.5"/>
<rect class="up" x="313.1" y="122.3" width="5.0" height="1.2"/>
<line class="wd" x1="323.7" y1="118.4" x2="323.7" y2="127.3"/>
<rect class="dn" x="321.2" y="122.4" width="5.0" height="3.5"/>
<line class="wd" x1="331.7" y1="122.9" x2="331.7" y2="129.8"/>
<rect class="dn" x="329.2" y="125.9" width="5.0" height="1.2"/>
<line class="wu" x1="339.8" y1="124.2" x2="339.8" y2="127.0"/>
<rect class="up" x="337.3" y="125.6" width="5.0" height="1.2"/>
<line class="wd" x1="347.8" y1="124.3" x2="347.8" y2="132.3"/>
<rect class="dn" x="345.3" y="125.6" width="5.0" height="4.3"/>
<line class="wu" x1="355.9" y1="119.4" x2="355.9" y2="131.8"/>
<rect class="up" x="353.4" y="119.5" width="5.0" height="10.5"/>
<line class="wu" x1="363.9" y1="113.3" x2="363.9" y2="122.0"/>
<rect class="up" x="361.4" y="115.1" width="5.0" height="4.4"/>
<line class="wd" x1="372.0" y1="111.3" x2="372.0" y2="117.5"/>
<rect class="dn" x="369.5" y="115.2" width="5.0" height="1.2"/>
<line class="wu" x1="380.0" y1="99.6" x2="380.0" y2="120.4"/>
<rect class="up" x="377.5" y="108.5" width="5.0" height="7.3"/>
<line class="wu" x1="388.1" y1="104.2" x2="388.1" y2="112.3"/>
<rect class="up" x="385.6" y="104.5" width="5.0" height="4.0"/>
<line class="wu" x1="396.1" y1="97.8" x2="396.1" y2="105.8"/>
<rect class="up" x="393.6" y="102.3" width="5.0" height="2.2"/>
<line class="wu" x1="404.2" y1="89.8" x2="404.2" y2="103.1"/>
<rect class="up" x="401.7" y="93.1" width="5.0" height="9.2"/>
<line class="wu" x1="412.2" y1="84.7" x2="412.2" y2="94.9"/>
<rect class="up" x="409.7" y="88.1" width="5.0" height="5.1"/>
<line class="wu" x1="420.3" y1="84.9" x2="420.3" y2="92.1"/>
<rect class="up" x="417.8" y="86.3" width="5.0" height="1.8"/>
<line class="wu" x1="428.3" y1="60.5" x2="428.3" y2="96.1"/>
<rect class="up" x="425.8" y="69.2" width="5.0" height="17.2"/>
<line class="wd" x1="436.4" y1="54.0" x2="436.4" y2="83.2"/>
<rect class="dn" x="433.9" y="69.1" width="5.0" height="1.5"/>
<line class="wd" x1="444.4" y1="67.9" x2="444.4" y2="76.6"/>
<rect class="dn" x="441.9" y="70.6" width="5.0" height="1.5"/>
<line class="wd" x1="452.5" y1="70.4" x2="452.5" y2="84.4"/>
<rect class="dn" x="450.0" y="72.1" width="5.0" height="8.5"/>
<line class="wu" x1="460.5" y1="78.4" x2="460.5" y2="85.4"/>
<rect class="up" x="458.0" y="79.3" width="5.0" height="1.3"/>
<line class="wd" x1="468.6" y1="76.9" x2="468.6" y2="84.9"/>
<rect class="dn" x="466.1" y="79.2" width="5.0" height="3.8"/>
<line class="wd" x1="476.6" y1="80.6" x2="476.6" y2="90.1"/>
<rect class="dn" x="474.1" y="82.9" width="5.0" height="7.0"/>
<line class="wd" x1="484.7" y1="86.3" x2="484.7" y2="102.6"/>
<rect class="dn" x="482.2" y="89.8" width="5.0" height="8.2"/>
<line class="wd" x1="492.7" y1="98.0" x2="492.7" y2="116.3"/>
<rect class="dn" x="490.2" y="98.0" width="5.0" height="15.0"/>
<line class="wd" x1="500.8" y1="108.2" x2="500.8" y2="117.8"/>
<rect class="dn" x="498.3" y="112.9" width="5.0" height="1.7"/>
<line class="wd" x1="508.8" y1="113.5" x2="508.8" y2="132.1"/>
<rect class="dn" x="506.3" y="114.5" width="5.0" height="16.1"/>
<line class="wu" x1="516.9" y1="119.4" x2="516.9" y2="131.7"/>
<rect class="up" x="514.4" y="122.5" width="5.0" height="8.2"/>
<line class="wu" x1="524.9" y1="110.5" x2="524.9" y2="129.8"/>
<rect class="up" x="522.4" y="111.1" width="5.0" height="11.3"/>
<line class="wd" x1="533.0" y1="110.3" x2="533.0" y2="120.3"/>
<rect class="dn" x="530.5" y="111.1" width="5.0" height="4.3"/>
<line class="wd" x1="541.0" y1="114.4" x2="541.0" y2="156.9"/>
<rect class="dn" x="538.5" y="115.3" width="5.0" height="26.4"/>
<line class="wd" x1="549.0" y1="141.0" x2="549.0" y2="180.5"/>
<rect class="dn" x="546.6" y="141.8" width="5.0" height="30.0"/>
<line class="wu" x1="557.1" y1="151.1" x2="557.1" y2="189.2"/>
<rect class="up" x="554.6" y="157.6" width="5.0" height="14.2"/>
<line class="wu" x1="565.1" y1="146.2" x2="565.1" y2="159.5"/>
<rect class="up" x="562.7" y="157.3" width="5.0" height="1.2"/>
<line class="wd" x1="573.2" y1="152.3" x2="573.2" y2="170.4"/>
<rect class="dn" x="570.7" y="157.2" width="5.0" height="2.6"/>
<line class="wd" x1="581.2" y1="119.8" x2="581.2" y2="248.4"/>
<rect class="dn" x="578.7" y="159.7" width="5.0" height="47.4"/>
<line class="wu" x1="589.3" y1="188.5" x2="589.3" y2="217.9"/>
<rect class="up" x="586.8" y="196.7" width="5.0" height="10.3"/>
<line class="wd" x1="597.3" y1="196.7" x2="597.3" y2="230.9"/>
<rect class="dn" x="594.8" y="196.7" width="5.0" height="24.8"/>
<line class="wd" x1="605.4" y1="220.9" x2="605.4" y2="251.7"/>
<rect class="dn" x="602.9" y="221.6" width="5.0" height="28.5"/>
<line class="wd" x1="613.4" y1="249.9" x2="613.4" y2="296.6"/>
<rect class="dn" x="610.9" y="250.1" width="5.0" height="7.4"/>
<line class="wd" x1="621.5" y1="248.9" x2="621.5" y2="306.1"/>
<rect class="dn" x="619.0" y="257.6" width="5.0" height="43.3"/>
<line class="wd" x1="629.5" y1="287.1" x2="629.5" y2="331.6"/>
<rect class="dn" x="627.0" y="300.7" width="5.0" height="11.2"/>
<line class="wd" x1="637.6" y1="307.9" x2="637.6" y2="334.0"/>
<rect class="dn" x="635.1" y="311.9" width="5.0" height="1.2"/>
<line class="wu" x1="645.6" y1="283.8" x2="645.6" y2="322.7"/>
<rect class="up" x="643.1" y="289.5" width="5.0" height="22.9"/>
<line class="wu" x1="653.7" y1="274.2" x2="653.7" y2="298.1"/>
<rect class="up" x="651.2" y="283.5" width="5.0" height="6.0"/>
<line class="wd" x1="661.7" y1="283.0" x2="661.7" y2="312.3"/>
<rect class="dn" x="659.2" y="283.5" width="5.0" height="6.8"/>
<line class="wu" x1="669.8" y1="245.9" x2="669.8" y2="295.1"/>
<rect class="up" x="667.3" y="257.4" width="5.0" height="33.0"/>
<line class="wd" x1="677.8" y1="244.7" x2="677.8" y2="270.6"/>
<rect class="dn" x="675.3" y="257.4" width="5.0" height="3.4"/>
<line class="wu" x1="685.9" y1="247.1" x2="685.9" y2="266.1"/>
<rect class="up" x="683.4" y="255.9" width="5.0" height="4.9"/>
<line class="wd" x1="693.9" y1="250.7" x2="693.9" y2="273.6"/>
<rect class="dn" x="691.4" y="255.9" width="5.0" height="12.1"/>
<line class="wu" x1="702.0" y1="255.1" x2="702.0" y2="270.6"/>
<rect class="up" x="699.5" y="260.3" width="5.0" height="7.8"/>
<polyline class="e1" points="50.0,136.7 58.1,135.9 66.1,134.9 74.2,133.8 82.2,132.9 90.3,131.9 98.3,131.0 106.4,130.2 114.4,129.4 122.5,128.5 130.5,127.8 138.6,127.4 146.6,126.9 154.7,126.3 162.7,125.7 170.8,124.9 178.8,123.9 186.9,123.3 194.9,123.0 203.0,122.6 211.0,122.2 219.0,121.7 227.1,121.3 235.1,121.0 243.2,120.8 251.2,120.7 259.3,120.5 267.3,120.6 275.4,120.8 283.4,120.9 291.5,121.3 299.5,121.6 307.6,121.7 315.6,121.7 323.7,121.8 331.7,122.0 339.8,122.2 347.8,122.5 355.9,122.4 363.9,122.1 372.0,121.8 380.0,121.3 388.1,120.7 396.1,119.9 404.2,118.9 412.2,117.7 420.3,116.4 428.3,114.6 436.4,112.9 444.4,111.3 452.5,110.1 460.5,108.9 468.6,107.8 476.6,107.1 484.7,106.8 492.7,107.0 500.8,107.3 508.8,108.2 516.9,108.8 524.9,108.9 533.0,109.1 541.0,110.4 549.0,112.8 557.1,114.6 565.1,116.3 573.2,118.0 581.2,121.5 589.3,124.4 597.3,128.2 605.4,133.0 613.4,137.9 621.5,144.3 629.5,150.9 637.6,157.2 645.6,162.4 653.7,167.1 661.7,172.0 669.8,175.3 677.8,178.7 685.9,181.7 693.9,185.1 702.0,188.0"/>
<polyline class="e2" points="50.0,127.3 58.1,127.2 66.1,127.0 74.2,126.8 82.2,126.7 90.3,126.5 98.3,126.3 106.4,126.1 114.4,126.0 122.5,125.8 130.5,125.6 138.6,125.6 146.6,125.5 154.7,125.3 162.7,125.2 170.8,125.0 178.8,124.7 186.9,124.6 194.9,124.5 203.0,124.3 211.0,124.2 219.0,124.1 227.1,123.9 235.1,123.9 243.2,123.8 251.2,123.7 259.3,123.6 267.3,123.6 275.4,123.6 283.4,123.7 291.5,123.7 299.5,123.8 307.6,123.8 315.6,123.8 323.7,123.8 331.7,123.8 339.8,123.8 347.8,123.9 355.9,123.8 363.9,123.8 372.0,123.7 380.0,123.5 388.1,123.3 396.1,123.1 404.2,122.8 412.2,122.5 420.3,122.1 428.3,121.6 436.4,121.1 444.4,120.6 452.5,120.2 460.5,119.8 468.6,119.4 476.6,119.1 484.7,118.9 492.7,118.9 500.8,118.8 508.8,118.9 516.9,119.0 524.9,118.9 533.0,118.9 541.0,119.1 549.0,119.6 557.1,120.0 565.1,120.4 573.2,120.8 581.2,121.6 589.3,122.4 597.3,123.3 605.4,124.6 613.4,125.9 621.5,127.7 629.5,129.5 637.6,131.3 645.6,132.9 653.7,134.4 661.7,136.0 669.8,137.2 677.8,138.4 685.9,139.6 693.9,140.8 702.0,142.0"/>
<text class="e1txt txf" x="616" y="372" font-size="9.5" fill="#C77D2E">— EMA50</text>
<text class="txf" x="666" y="372" font-size="9.5">--- EMA200</text>
<polygon class="mk-in" points="170.8,118.2 164.8,129.2 176.8,129.2"/>
<text class="mkl" x="170.8" y="143.2" text-anchor="middle" font-size="10">ENTRADA</text>
<polygon class="mk-out" points="275.4,112.3 269.4,101.3 281.4,101.3"/>
<text class="mkl" x="275.4" y="95.3" text-anchor="middle" font-size="10">sale por agotamiento ✗</text>
<polygon class="mk-in" points="436.4,47.0 430.4,36.0 442.4,36.0"/>
<text class="mkl" x="436.4" y="30.0" text-anchor="middle" font-size="10">la tendencia sigue →</text>
<rect class="badge-r" x="52" y="58" width="164" height="22" rx="4"/>
<text class="bt-r" x="60" y="73" font-size="11" font-weight="bold">Abandona el trend</text>
</svg>