<svg viewBox="0 0 720 340" role="img" aria-label="V47 — Pairs trading por cointegración (RECHAZADA)" xmlns="http://www.w3.org/2000/svg" style="max-width:100%;height:auto;border:1px solid #d9d5c9;border-radius:8px">
<style>
.cbg{fill:#FCFBF8} .cgrid{stroke:#E4E1D6;stroke-width:1} .up{fill:#2E7A50;stroke:#2E7A50}
.dn{fill:#A6392E;stroke:#A6392E} .wu{stroke:#2E7A50;stroke-width:1.4} .wd{stroke:#A6392E;stroke-width:1.4}
.e1{stroke:#C77D2E;stroke-width:2;fill:none} .e2{stroke:#7C8288;stroke-width:2;fill:none;stroke-dasharray:5 3}
.bb{stroke:#6E7AD6;stroke-width:1.3;fill:none;stroke-dasharray:3 3} .lvl{stroke:#7C8288;stroke-width:1;stroke-dasharray:4 3}
.txt{fill:#1B1F23;font-family:ui-monospace,Menlo,monospace} .txf{fill:#7C8288;font-family:ui-monospace,Menlo,monospace}
.mk-in{fill:#2E7A50} .mk-out{fill:#A6392E} .mkl{fill:#1B1F23;font-family:ui-monospace,Menlo,monospace;font-weight:bold}
.title{fill:#1B1F23;font-family:ui-monospace,Menlo,monospace;font-weight:bold} .badge-g{fill:#DEEBE2;stroke:#2E7A50}
.badge-r{fill:#F2DDD9;stroke:#A6392E} .bt-g{fill:#2E7A50} .bt-r{fill:#A6392E}
@media (prefers-color-scheme:dark){
 .cbg{fill:#1A1D20} .cgrid{stroke:#2A2D31} .up{fill:#5FB981;stroke:#5FB981} .dn{fill:#E2837A;stroke:#E2837A}
 .wu{stroke:#5FB981} .wd{stroke:#E2837A} .e1{stroke:#DFA054} .e2{stroke:#9EA2AD} .bb{stroke:#8B95E0}
 .lvl{stroke:#8B8880} .txt{fill:#E9E6DD} .txf{fill:#8B8880} .mk-in{fill:#5FB981} .mk-out{fill:#E2837A}
 .mkl{fill:#E9E6DD} .badge-g{fill:#1C2E23;stroke:#5FB981} .badge-r{fill:#35201E;stroke:#E2837A}
 .bt-g{fill:#5FB981} .bt-r{fill:#E2837A}}
</style>
<rect class="cbg" x="0" y="0" width="720" height="340"/>
<text class="title" x="360.0" y="24" text-anchor="middle" font-size="15">V47 — Pairs trading por cointegración (RECHAZADA)</text>
<text class="txf" x="360.0" y="42" text-anchor="middle" font-size="11">spread ETH–BNB (z-score) · entra al cruzar 2σ esperando reversión — pero DIVERGE</text>
<line class="lvl" x1="46" y1="114.0" x2="706" y2="114.0"/>
<text class="txf" x="702" y="111.0" text-anchor="end" font-size="10">entrada +2σ</text>
<line class="cgrid" x1="46" y1="196.6" x2="706" y2="196.6"/>
<text class="txf" x="702" y="193.6" text-anchor="end" font-size="10">media</text>
<line class="lvl" x1="46" y1="279.2" x2="706" y2="279.2"/>
<text class="txf" x="702" y="276.2" text-anchor="end" font-size="10">−2σ</text>
<polyline points="46.0,197.6 52.7,190.2 59.3,194.0 66.0,194.0 72.7,190.9 79.3,185.2 86.0,164.5 92.7,166.5 99.3,174.5 106.0,176.7 112.7,173.8 119.3,160.0 126.0,147.5 132.7,164.2 139.3,188.9 146.0,174.1 152.7,166.5 159.3,179.6 166.0,153.4 172.7,143.6 179.3,136.3 186.0,129.3 192.7,129.5 199.3,131.4 206.0,132.9 212.7,127.4 219.3,152.0 226.0,153.3 232.7,157.2 239.3,143.7 246.0,133.5 252.7,113.3 259.3,80.5 266.0,92.4 272.7,113.8 279.3,118.5 286.0,129.5 292.7,125.4 299.3,116.5 306.0,114.7 312.7,113.1 319.3,115.7 326.0,133.8 332.7,124.6 339.3,130.7 346.0,125.8 352.7,129.8 359.3,136.3 366.0,131.9 372.7,136.2 379.3,149.3 386.0,146.0 392.7,131.3 399.3,126.7 406.0,133.8 412.7,139.8 419.3,131.9 426.0,117.8 432.7,99.8 439.3,97.8 446.0,84.4 452.7,86.3 459.3,71.9 466.0,54.0 472.7,73.4 479.3,70.2 486.0,70.9 492.7,54.6 499.3,71.8 506.0,82.9 512.7,80.7 519.3,102.7 526.0,109.1 532.7,123.9 539.3,134.6 546.0,145.6 552.7,176.7 559.3,191.3 566.0,162.8 572.7,168.2 579.3,170.4 586.0,180.1 592.7,197.6 599.3,211.2 606.0,208.8 612.7,204.7 619.3,208.4 626.0,200.9 632.7,206.3 639.3,213.2 646.0,205.7 652.7,236.0 659.3,294.0 666.0,284.9 672.7,297.5 679.3,298.0 686.0,288.7 692.7,262.7 699.3,246.0 706.0,238.0" fill="none" stroke="#C77D2E" stroke-width="2.2"/>
<circle class="mk-out" cx="312.7" cy="113.1" r="5"/>
<text class="mkl" x="312.7" y="101.1" text-anchor="middle" font-size="10">cruza 2σ, sigue subiendo ✗</text>
<rect class="badge-r" x="52" y="58" width="176" height="22" rx="4"/>
<text class="bt-r" x="60" y="73" font-size="11" font-weight="bold">El spread no revierte</text>
</svg>